<svg width="121" height="42" viewBox="0 0 121 42" fill="none" xmlns="http://www.w3.org/2000/svg">
<path d="M9.75516 11.3035C9.65587 10.5092 9.42006 9.93829 9.04772 9.59078C8.70021 9.21844 8.16653 9.03228 7.44669 9.03228C5.9077 9.03228 5.13821 9.78936 5.13821 11.3035C5.13821 12.0482 5.37402 12.7432 5.84565 13.3886C6.31727 14.034 6.91301 14.6669 7.63285 15.2875C8.3527 15.9081 9.12219 16.541 9.94133 17.1864C10.7605 17.8318 11.53 18.5392 12.2498 19.3087C12.9696 20.0534 13.5654 20.8849 14.037 21.8033C14.5086 22.7218 14.7444 23.7519 14.7444 24.8937C14.7444 26.9043 14.1115 28.4557 12.8455 29.5479C11.5796 30.6401 9.81721 31.1862 7.55839 31.1862C5.3492 31.1862 3.62405 30.6277 2.38294 29.5107C1.14183 28.3937 0.471623 26.7802 0.372334 24.6703C0.347512 23.9256 0.719846 23.5533 1.48934 23.5533H3.72334C4.41837 23.5533 4.81552 23.9132 4.91481 24.6331C5.21268 26.1472 6.09387 26.9043 7.55839 26.9043C8.50163 26.9043 9.18425 26.7306 9.60622 26.3831C10.053 26.0355 10.2764 25.4646 10.2764 24.6703C10.2764 23.8512 10.0406 23.1189 9.56899 22.4735C9.09737 21.8033 8.50163 21.1704 7.78179 20.5746C7.06194 19.9789 6.29245 19.3832 5.47331 18.7874C4.65418 18.1917 3.88469 17.5339 3.16484 16.8141C2.44499 16.0694 1.84926 15.2378 1.37764 14.3194C0.906013 13.401 0.670202 12.3212 0.670202 11.0801C0.670202 9.11916 1.26594 7.58017 2.45741 6.46317C3.64888 5.32135 5.31197 4.75043 7.44669 4.75043C11.8154 4.75043 14.0991 6.92238 14.2976 11.2663C14.2976 12.011 13.9253 12.3833 13.1806 12.3833H10.9466C10.2516 12.3833 9.85445 12.0234 9.75516 11.3035ZM25.4901 9.21844V29.883C25.4901 30.6277 25.1177 31 24.3731 31H22.1391C21.3944 31 21.0221 30.6277 21.0221 29.883V9.21844H17.9317C17.187 9.21844 16.8147 8.84611 16.8147 8.10144V6.0536C16.8147 5.30894 17.187 4.9366 17.9317 4.9366H28.5432C29.2879 4.9366 29.6602 5.30894 29.6602 6.0536V8.10144C29.6602 8.84611 29.2879 9.21844 28.5432 9.21844H25.4901ZM37.1156 19.4949V26.7182H43.073C43.8176 26.7182 44.19 27.0905 44.19 27.8352V29.883C44.19 30.6277 43.8176 31 43.073 31H33.7646C33.0199 31 32.6476 30.6277 32.6476 29.883V6.0536C32.6476 5.30894 33.0199 4.9366 33.7646 4.9366H43.073C43.8176 4.9366 44.19 5.30894 44.19 6.0536V8.10144C44.19 8.84611 43.8176 9.21844 43.073 9.21844H37.1156V15.213H42.4028C43.1474 15.213 43.5198 15.5854 43.5198 16.33V18.3779C43.5198 19.1225 43.1474 19.4949 42.4028 19.4949H37.1156ZM51.6308 26.7182H56.8435C57.5882 26.7182 57.9605 27.0905 57.9605 27.8352V29.883C57.9605 30.6277 57.5882 31 56.8435 31H48.2798C47.5352 31 47.1628 30.6277 47.1628 29.883V6.0536C47.1628 5.30894 47.5352 4.9366 48.2798 4.9366H50.5138C51.2585 4.9366 51.6308 5.30894 51.6308 6.0536V26.7182ZM65.4188 26.7182H70.6315C71.3762 26.7182 71.7485 27.0905 71.7485 27.8352V29.883C71.7485 30.6277 71.3762 31 70.6315 31H62.0678C61.3232 31 60.9508 30.6277 60.9508 29.883V6.0536C60.9508 5.30894 61.3232 4.9366 62.0678 4.9366H64.3018C65.0465 4.9366 65.4188 5.30894 65.4188 6.0536V26.7182Z" fill="#951851"/>
<path d="M109.26 17.3353H111.68C112.624 17.3353 113.294 17.0747 113.691 16.5534C114.088 16.0322 114.287 15.1758 114.287 13.9843V12.5695C114.287 11.378 114.088 10.5216 113.691 10.0003C113.294 9.47908 112.624 9.21844 111.68 9.21844H109.26V17.3353ZM112.276 21.5799H111.718H110.787C109.794 21.5799 109.024 21.3069 108.478 20.7608L108.367 20.8725C108.54 21.0214 108.689 21.2076 108.813 21.431C108.938 21.6296 109.037 21.8654 109.111 22.1384C109.211 22.4115 109.26 22.7342 109.26 23.1065V29.883C109.26 30.6277 108.888 31 108.143 31H105.909C105.165 31 104.792 30.6277 104.792 29.883V6.0536C104.792 5.30894 105.165 4.9366 105.909 4.9366H111.718C114.125 4.9366 115.9 5.50751 117.042 6.64934C118.209 7.79116 118.792 9.56596 118.792 11.9737V14.2822C118.792 15.4737 118.693 16.4666 118.494 17.2609C118.296 18.0552 117.985 18.6509 117.563 19.0481C117.29 19.2963 116.968 19.4825 116.595 19.6066C116.248 19.7059 115.9 19.7803 115.553 19.83C115.156 19.8548 114.758 19.8548 114.361 19.83L114.324 20.0161C114.721 20.041 115.094 20.1651 115.441 20.3885C115.739 20.5871 116.037 20.8849 116.335 21.2821C116.657 21.6792 116.906 22.2377 117.079 22.9576L118.867 29.9202C119.04 30.6401 118.755 31 118.01 31H115.776C115.031 31 114.572 30.6401 114.399 29.9202L112.276 21.5799Z" fill="#951851"/>
<path d="M75.7629 29.2746L80.8358 19.129L75.7629 12.6068H84.0969L89.4003 2L91.5216 12.6068H102.027L92.7049 18.523L96.9765 39.8814L84.4426 23.7664L75.7629 29.2746Z" fill="#951851"/>
<path d="M75.7629 29.2746L89.4003 2L96.9765 39.8814L75.7629 12.6068H102.027L75.7629 29.2746Z" stroke="#951851" stroke-width="3.5356" stroke-linecap="round" stroke-linejoin="round"/>
</svg>
